<?xml version="1.0" encoding="iso-8859-1"?>
<!-- Uploaded to: SVG Repo, www.svgrepo.com, Generator: SVG Repo Mixer Tools -->
<svg version="1.1" id="Layer_1" xmlns="http://www.w3.org/2000/svg" xmlns:xlink="http://www.w3.org/1999/xlink"
	 viewBox="0 0 512 512" xml:space="preserve">
<rect x="66.542" y="46.631" style="fill:#F1CE30;" width="124.806" height="405.348"/>
<g>
	<rect x="66.542" y="85.846" style="fill:#D9BA2C;" width="124.806" height="61.585"/>
	<rect x="66.542" y="394.281" style="fill:#D9BA2C;" width="124.806" height="20.757"/>
	<rect x="66.542" y="358.297" style="fill:#D9BA2C;" width="124.806" height="20.757"/>
</g>
<rect x="253.763" y="46.631" style="fill:#79D5DE;" width="85.248" height="405.348"/>
<g>
	<rect x="253.763" y="376.818" style="fill:#6DC0C7;" width="85.248" height="19.699"/>
	<rect x="253.763" y="91.411" style="fill:#6DC0C7;" width="85.248" height="19.699"/>
</g>
<rect x="191.354" y="23.247" style="fill:#B90B27;" width="62.408" height="428.733"/>
<g>
	<rect x="191.354" y="63.083" style="fill:#A70B24;" width="62.408" height="19.972"/>
	<rect x="191.354" y="89.541" style="fill:#A70B24;" width="62.408" height="9.986"/>
	<rect x="191.354" y="368.681" style="fill:#A70B24;" width="62.408" height="35.985"/>
</g>
<rect x="370.717" y="20.957" transform="matrix(-0.9884 0.152 -0.152 -0.9884 834.1309 396.2078)" style="fill:#F1CE30;" width="62.41" height="418.056"/>
<g>

		<rect x="346.529" y="62.639" transform="matrix(-0.9884 0.152 -0.152 -0.9884 762.1172 86.9917)" style="fill:#D9BA2C;" width="62.41" height="19.973"/>

		<rect x="349.791" y="88.855" transform="matrix(-0.9884 0.152 -0.152 -0.9884 771.8293 128.6952)" style="fill:#D9BA2C;" width="62.41" height="9.986"/>

		<rect x="394.2" y="364.605" transform="matrix(-0.9884 0.152 -0.152 -0.9884 904.0204 696.0892)" style="fill:#D9BA2C;" width="62.41" height="35.985"/>
</g>
<rect y="441.296" style="fill:#C17644;" width="512" height="52.053"/>
<rect y="467.331" style="fill:#9A5F38;" width="512" height="26.026"/>
</svg>